<svg xmlns="http://www.w3.org/2000/svg" viewBox="0 0 1200 630" role="img" aria-labelledby="title desc">
  <title id="title">stemosoft</title>
  <desc id="desc">stemosoft cross-platform apps and smart home products</desc>
  <defs>
    <linearGradient id="bg" x1="0" y1="0" x2="1" y2="1">
      <stop offset="0%" stop-color="#f7faff"/>
      <stop offset="100%" stop-color="#e8f1ff"/>
    </linearGradient>
    <linearGradient id="gBlue" x1="0" y1="0" x2="1" y2="1">
      <stop offset="0%" stop-color="#2842cc"/>
      <stop offset="100%" stop-color="#355fdc"/>
    </linearGradient>
    <linearGradient id="gCyan" x1="0" y1="0" x2="1" y2="1">
      <stop offset="0%" stop-color="#39c8e6"/>
      <stop offset="100%" stop-color="#179ce7"/>
    </linearGradient>
  </defs>

  <rect width="1200" height="630" fill="url(#bg)"/>
  <rect x="72" y="72" width="1056" height="486" rx="40" fill="#ffffff" stroke="#d9e6fb" stroke-width="2"/>

  <g transform="translate(160 104)">
    <path d="M418 54H206c-90 0-158 43-158 107c0 62 52 91 121 124l104 50c49 23 87 42 87 72c0 33-35 55-91 55H130" fill="none" stroke="url(#gBlue)" stroke-width="44" stroke-linecap="round" stroke-linejoin="round"/>
    <path d="M367 54H173c-74 0-130 38-130 95c0 56 46 82 108 112l97 47c46 22 80 39 80 66c0 29-31 49-81 49H103" fill="none" stroke="url(#gCyan)" stroke-width="34" stroke-linecap="round" stroke-linejoin="round" opacity="0.96"/>
  </g>

  <text x="600" y="452" text-anchor="middle" font-family="Arial, Helvetica, sans-serif" font-size="104" font-weight="500" fill="#0a0f1a">stemosoft</text>
  <text x="600" y="515" text-anchor="middle" font-family="Arial, Helvetica, sans-serif" font-size="34" fill="#2f4e80">Cross-platform apps and smart home products</text>
</svg>
